<?xml version="1.0" standalone="no"?>
<!DOCTYPE svg PUBLIC "-//W3C//DTD SVG 20010904//EN"
 "http://www.w3.org/TR/2001/REC-SVG-20010904/DTD/svg10.dtd">
<svg version="1.0" xmlns="http://www.w3.org/2000/svg"
 width="512.000000pt" height="512.000000pt" viewBox="0 0 512.000000 512.000000"
 preserveAspectRatio="xMidYMid meet">
<metadata>
Created by potrace 1.14, written by Peter Selinger 2001-2017
</metadata>
<g transform="translate(0.000000,512.000000) scale(0.100000,-0.100000)"
fill="#000000" stroke="none">
<path d="M1703 4178 c121 -120 180 -223 201 -350 2 -14 10 -36 16 -48 15 -28
8 -34 -65 -50 -121 -25 -321 -103 -420 -163 -169 -103 -310 -258 -404 -445
-30 -60 -84 -210 -95 -262 -36 -181 -38 -199 -41 -390 -3 -186 7 -283 45 -435
76 -305 242 -570 489 -785 184 -159 440 -283 701 -338 143 -31 172 -34 340
-37 193 -3 271 6 522 60 61 13 244 84 331 127 335 168 598 430 747 743 42 87
89 216 105 287 19 88 25 122 31 188 12 138 9 279 -10 410 -8 54 -63 264 -75
288 -5 9 -23 49 -41 87 -67 147 -202 317 -342 428 -119 95 -339 204 -489 242
-35 9 -100 27 -143 41 -76 24 -155 37 -223 38 -18 0 -33 3 -33 7 0 27 207 121
299 136 25 4 49 8 54 9 4 1 26 2 50 4 40 2 41 2 13 10 -114 35 -334 28 -430
-12 -52 -22 -121 -70 -142 -98 -7 -8 -21 -26 -32 -40 l-20 -25 -12 30 c-17 43
-14 105 8 162 18 49 83 145 115 172 51 42 -34 23 -149 -34 -126 -61 -215 -170
-227 -275 -3 -34 -5 -35 -43 -34 -65 1 -144 45 -225 124 -81 79 -155 139 -239
192 -66 42 -233 128 -249 128 -6 0 31 -42 82 -92z"/>
</g>
</svg>
